<?xml version="1.0" encoding="UTF-8" standalone="no"?>
<svg
   aria-hidden="true"
   data-prefix="fas"
   data-icon="angle-double-up"
   role="img"
   viewBox="0 0 320 512"
   data-fa-i2svg=""
   version="1.1"
   id="svg37712"
   sodipodi:docname="angle-double-up.svg"
   inkscape:version="1.1 (c68e22c387, 2021-05-23)"
   xmlns:inkscape="http://www.inkscape.org/namespaces/inkscape"
   xmlns:sodipodi="http://sodipodi.sourceforge.net/DTD/sodipodi-0.dtd"
   xmlns="http://www.w3.org/2000/svg"
   xmlns:svg="http://www.w3.org/2000/svg">
  <defs
     id="defs37716" />
  <sodipodi:namedview
     id="namedview37714"
     pagecolor="#ffffff"
     bordercolor="#666666"
     borderopacity="1.0"
     inkscape:pageshadow="2"
     inkscape:pageopacity="0.0"
     inkscape:pagecheckerboard="0"
     showgrid="false"
     inkscape:zoom="0.15036377"
     inkscape:cx="-1300.1802"
     inkscape:cy="691.65597"
     inkscape:window-width="1336"
     inkscape:window-height="983"
     inkscape:window-x="-12"
     inkscape:window-y="19"
     inkscape:window-maximized="0"
     inkscape:current-layer="svg37712" />
  <path
     fill="currentColor"
     d="M177 255.7l136 136c9.4 9.4 9.4 24.6 0 33.9l-22.6 22.6c-9.4 9.4-24.6 9.4-33.9 0L160 351.9l-96.4 96.4c-9.4 9.4-24.6 9.4-33.9 0L7 425.7c-9.4-9.4-9.4-24.6 0-33.9l136-136c9.4-9.5 24.6-9.5 34-.1zm-34-192L7 199.7c-9.4 9.4-9.4 24.6 0 33.9l22.6 22.6c9.4 9.4 24.6 9.4 33.9 0l96.4-96.4 96.4 96.4c9.4 9.4 24.6 9.4 33.9 0l22.6-22.6c9.4-9.4 9.4-24.6 0-33.9l-136-136c-9.2-9.4-24.4-9.4-33.8 0z"
     id="path37710"
     style="fill:#3aa6e3;fill-opacity:1" />
</svg>
